<svg xmlns="http://www.w3.org/2000/svg" width="256" height="256" viewBox="0 0 100 100"><rect width="100" height="100" rx="0" fill="#000000"></rect><path d="M67.44 71.84Q68.80 73.84 70.44 75Q72.08 76.16 74.48 76.72L74.48 76.72L74.48 78.32Q70.64 78.08 64.88 78.08L64.88 78.08Q60.56 78.08 56.64 78.32L56.64 78.32L56.64 76.72Q58.56 76.64 59.44 76.24Q60.32 75.84 60.32 75.04L60.32 75.04Q60.32 74.24 59.52 73.12L59.52 73.12L47.84 55.52Q45.52 52.00 43.92 50.92Q42.32 49.84 39.44 49.68L39.44 49.68L39.44 69.84Q39.44 72.88 39.92 74.24Q40.40 75.60 41.72 76.08Q43.04 76.56 45.92 76.72L45.92 76.72L45.92 78.32Q42.24 78.08 35.76 78.08L35.76 78.08Q28.88 78.08 25.52 78.32L25.52 78.32L25.52 76.72Q28.40 76.56 29.72 76.08Q31.04 75.60 31.52 74.24Q32 72.88 32 69.84L32 69.84L32 30.16Q32 27.12 31.52 25.76Q31.04 24.40 29.72 23.92Q28.40 23.44 25.52 23.28L25.52 23.28L25.52 21.68Q28.88 21.92 35.76 21.92L35.76 21.92Q42.16 21.92 45.92 21.68L45.92 21.68L45.92 23.28Q43.04 23.44 41.72 23.92Q40.40 24.40 39.92 25.76Q39.44 27.12 39.44 30.16L39.44 30.16L39.44 48.08Q45.28 47.84 48.56 43.60L48.56 43.60L56.24 33.84Q60.32 28.80 60.32 26.16L60.32 26.16Q60.32 23.36 55.36 23.28L55.36 23.28L55.36 21.68Q59.92 21.92 64.56 21.92L64.56 21.92Q68.96 21.92 71.36 21.68L71.36 21.68L71.36 23.28Q68.72 23.68 66.40 25.00Q64.08 26.32 61.92 29.12L61.92 29.12L48.88 45.84L67.44 71.84Z" fill="#ffffff"></path></svg>